<svg width="32" height="32" viewBox="0 0 32 32" fill="none" xmlns="http://www.w3.org/2000/svg">
<rect width="32" height="32" rx="16" fill="#35383B"/>
<path d="M16.0015 7.80167C18.6703 7.80167 18.9867 7.81046 20.0413 7.86026C21.0168 7.9042 21.5471 8.06826 21.8986 8.20595C22.3644 8.38758 22.6984 8.60437 23.047 8.95298C23.3956 9.3016 23.6124 9.63557 23.7941 10.1014C23.9317 10.4529 24.0929 10.9832 24.1397 11.9587C24.1866 13.0133 24.1983 13.3297 24.1983 15.9985C24.1983 18.6673 24.1895 18.9837 24.1397 20.0384C24.0958 21.0139 23.9317 21.5442 23.7941 21.8957C23.6124 22.3615 23.3956 22.6955 23.047 23.0441C22.6984 23.3927 22.3644 23.6095 21.8986 23.7911C21.5471 23.9288 21.0168 24.0899 20.0413 24.1368C18.9867 24.1837 18.6703 24.1954 16.0015 24.1954C13.3327 24.1954 13.0163 24.1866 11.9616 24.1368C10.9861 24.0929 10.4558 23.9288 10.1043 23.7911C9.63849 23.6095 9.30453 23.3927 8.95591 23.0441C8.60729 22.6955 8.39051 22.3615 8.20888 21.8957C8.07119 21.5442 7.91006 21.0139 7.86319 20.0384C7.81632 18.9837 7.8046 18.6673 7.8046 15.9985C7.8046 13.3297 7.81339 13.0133 7.86319 11.9587C7.90713 10.9832 8.07119 10.4529 8.20888 10.1014C8.39051 9.63557 8.60729 9.3016 8.95591 8.95298C9.30453 8.60437 9.63849 8.38758 10.1043 8.20595C10.4558 8.06826 10.9861 7.90713 11.9616 7.86026C13.0163 7.81046 13.3327 7.80167 16.0015 7.80167ZM16.0015 6C13.2858 6 12.946 6.01172 11.8796 6.06152C10.8162 6.11132 10.0896 6.27831 9.451 6.52732C8.79479 6.77926 8.23524 7.12202 7.68156 7.67863C7.12494 8.23524 6.78512 8.79186 6.52732 9.451C6.28124 10.0867 6.11132 10.8132 6.06152 11.8796C6.01172 12.946 6 13.2858 6 16.0015C6 18.7172 6.01172 19.057 6.06152 20.1233C6.11132 21.1868 6.27831 21.9133 6.52732 22.5519C6.78219 23.2052 7.12494 23.7648 7.68156 24.3184C8.23817 24.8751 8.79479 25.2149 9.45393 25.4727C10.0896 25.7188 10.8162 25.8887 11.8825 25.9385C12.9489 25.9883 13.2887 26 16.0044 26C18.7201 26 19.0599 25.9883 20.1263 25.9385C21.1897 25.8887 21.9162 25.7217 22.5549 25.4727C23.2081 25.2178 23.7677 24.8751 24.3214 24.3184C24.878 23.7618 25.2178 23.2052 25.4756 22.5461C25.7217 21.9104 25.8916 21.1838 25.9414 20.1175C25.9912 19.0511 26.0029 18.7113 26.0029 15.9956C26.0029 13.2799 25.9912 12.9401 25.9414 11.8737C25.8916 10.8103 25.7246 10.0838 25.4756 9.44514C25.2207 8.79186 24.878 8.23231 24.3214 7.67863C23.7648 7.12202 23.2081 6.78219 22.549 6.52439C21.9133 6.27831 21.1868 6.10839 20.1204 6.05859C19.057 6.01172 18.7172 6 16.0015 6Z" fill="#9C9EA4"/>
<path d="M16.0026 10.8635C13.1668 10.8635 10.8671 13.1632 10.8671 15.999C10.8671 18.8348 13.1668 21.1345 16.0026 21.1345C18.8384 21.1345 21.138 18.8348 21.138 15.999C21.138 13.1632 18.8384 10.8635 16.0026 10.8635ZM16.0026 19.3328C14.1628 19.3328 12.6687 17.8417 12.6687 15.999C12.6687 14.1563 14.1628 12.6652 16.0026 12.6652C17.8423 12.6652 19.3364 14.1563 19.3364 15.999C19.3364 17.8417 17.8423 19.3328 16.0026 19.3328Z" fill="#9C9EA4"/>
<path d="M21.3417 11.8622C22.0051 11.8622 22.5429 11.3244 22.5429 10.6611C22.5429 9.99772 22.0051 9.45996 21.3417 9.45996C20.6784 9.45996 20.1406 9.99772 20.1406 10.6611C20.1406 11.3244 20.6784 11.8622 21.3417 11.8622Z" fill="#9C9EA4"/>
</svg>
