<svg width="32" height="32" viewBox="0 0 32 32" fill="none" xmlns="http://www.w3.org/2000/svg">
<rect width="32" height="32" rx="16" fill="#35383B"/>
<path d="M5.52544 15.2935C5.57137 15.2713 5.61733 15.2502 5.66211 15.2302C6.44061 14.8817 7.22946 14.5554 8.01715 14.229C8.05963 14.229 8.13081 14.1813 8.17099 14.1657C8.23185 14.1402 8.29272 14.1158 8.35358 14.0903C8.4707 14.0414 8.58782 13.9937 8.70379 13.9449C8.93804 13.8483 9.17111 13.7517 9.40535 13.6551L10.8074 13.0746C11.742 12.6883 12.6779 12.3009 13.6125 11.9147C14.5472 11.5284 15.483 11.141 16.4177 10.7547C17.3523 10.3684 18.2881 9.98106 19.2228 9.59478C20.1575 9.2085 21.0933 8.82111 22.028 8.43483C22.2358 8.34825 22.4609 8.21949 22.6836 8.18175C22.8708 8.14956 23.0533 8.0874 23.2417 8.053C23.5988 7.98751 23.9926 7.96087 24.3348 8.10406C24.453 8.15401 24.5621 8.22394 24.6528 8.31163C25.0869 8.72676 25.026 9.4083 24.9342 9.99216C24.2946 14.0614 23.655 18.1318 23.0143 22.201C22.927 22.7593 22.8076 23.3721 22.3518 23.725C21.966 24.0236 21.4171 24.0569 20.9406 23.9304C20.4641 23.8027 20.0438 23.5352 19.6316 23.2722C17.9219 22.1777 16.211 21.0832 14.5013 19.9888C14.0948 19.729 13.6424 19.3894 13.647 18.9176C13.6493 18.6335 13.8249 18.3804 14.0041 18.1551C15.4899 16.2814 17.6337 14.9938 19.2286 13.2067C19.4536 12.9547 19.6304 12.4996 19.3216 12.3542C19.1379 12.2677 18.9266 12.3853 18.7589 12.4974C16.6507 13.9127 14.5437 15.329 12.4356 16.7443C11.7478 17.206 11.0267 17.6811 10.1977 17.7943C9.45589 17.8964 8.70954 17.6966 7.99189 17.4924C7.39021 17.3215 6.78966 17.1461 6.19143 16.9652C5.87337 16.8697 5.54497 16.7665 5.29924 16.55C5.05352 16.3336 4.91231 15.9695 5.06043 15.6809C5.15344 15.5 5.33371 15.3856 5.52317 15.2924L5.52544 15.2935Z" fill="#9C9EA4"/>
</svg>
